<?xml version="1.0" encoding="utf-8"?>
<!-- Generator: Adobe Illustrator 16.0.0, SVG Export Plug-In . SVG Version: 6.00 Build 0)  -->
<!DOCTYPE svg PUBLIC "-//W3C//DTD SVG 1.1//EN" "http://www.w3.org/Graphics/SVG/1.1/DTD/svg11.dtd">
<svg version="1.1" id="Layer_1" xmlns="http://www.w3.org/2000/svg" xmlns:xlink="http://www.w3.org/1999/xlink" x="0px" y="0px"
	 width="130px" height="130px" viewBox="0 0 130 130" enable-background="new 0 0 130 130" xml:space="preserve">
<g>
	<g id="Shape_1_copy_3_29_">
		<ellipse fill="#EE3849" cx="65" cy="65" rx="64" ry="64.017"/>
	</g>
	<g id="Shape_12_copy">
		<path fill="#FFFFFF" d="M90.106,61.177c-5.534-1.816-9.494-2.485-9.494-6.909c0-3.119,2.406-5.464,5.776-5.464
			c2.423,0,4.331,0.957,6.06,3.377l4.59-2.345c-2.338-4.148-5.715-6.23-10.392-6.23c-7.18,0-11.599,4.332-11.599,10.825
			c0,6.658,4.334,9.437,12.73,12.202c4.67,1.554,7.438,2.51,7.438,6.482c0,4.068-3.629,7.285-8.915,7.104
			c-5.381-0.183-7.039-3.125-8.985-7.562c-3.142-7.168-6.742-15.59-7.021-16.246c-3.668-8.463-10.89-13.239-19.833-13.239
			c-11.85,0-21.456,9.611-21.456,21.463c0,11.856,9.606,21.456,21.456,21.456c6.688,0,12.663-3.054,16.596-7.848l-2.769-6.389
			c-2.605,4.976-7.825,8.368-13.827,8.368c-8.604,0-15.584-6.979-15.584-15.588c0-8.61,6.98-15.591,15.584-15.591
			c6.359,0,11.994,3.732,14.266,9.259l6.849,15.614l0.793,1.764c2.779,6.466,6.777,10.135,14.278,10.163
			c8.142,0.012,14.377-5.279,14.377-12.548C101.023,66.375,97.561,63.604,90.106,61.177z"/>
	</g>
</g>
</svg>
