<?xml version="1.0" encoding="utf-8"?>
<!-- Generator: Adobe Illustrator 16.0.0, SVG Export Plug-In . SVG Version: 6.00 Build 0)  -->
<!DOCTYPE svg PUBLIC "-//W3C//DTD SVG 1.1//EN" "http://www.w3.org/Graphics/SVG/1.1/DTD/svg11.dtd">
<svg version="1.1" id="Layer_1" xmlns="http://www.w3.org/2000/svg" xmlns:xlink="http://www.w3.org/1999/xlink" x="0px" y="0px"
	 width="130px" height="130px" viewBox="0 0 130 130" enable-background="new 0 0 130 130" xml:space="preserve">
<g id="Shape_1_copy_3_36_">
	<ellipse fill="#EB5350" cx="65" cy="65" rx="64" ry="64.017"/>
</g>
<g id="Shape_11_copy">
	<path fill="#FFFFFF" d="M44.67,75.374h3.424v17.019h3.308V75.374h3.424v-2.892H44.67V75.374z M61.564,88.859
		c-0.276,0.317-0.579,0.581-0.912,0.785c-0.33,0.208-0.606,0.312-0.818,0.312c-0.276,0-0.475-0.078-0.602-0.236
		c-0.12-0.152-0.183-0.403-0.183-0.751v-11.27h-2.935v12.284c0,0.877,0.174,1.526,0.515,1.969c0.345,0.437,0.854,0.654,1.535,0.654
		c0.551,0,1.119-0.153,1.701-0.469c0.593-0.311,1.151-0.762,1.698-1.36v1.615H64.5V77.699h-2.936V88.859z M72.288,77.523
		c-0.456,0-0.909,0.115-1.357,0.348c-0.44,0.23-0.861,0.576-1.258,1.02v-6.408h-2.968v19.91h2.968v-1.127
		c0.386,0.449,0.807,0.781,1.258,0.993c0.445,0.217,0.955,0.319,1.535,0.319c0.869,0,1.534-0.275,1.995-0.829
		c0.461-0.556,0.69-1.354,0.69-2.395v-8.151c0-1.202-0.245-2.117-0.738-2.743C73.925,77.837,73.216,77.523,72.288,77.523z
		 M72.125,88.953c0,0.472-0.087,0.805-0.255,1.011c-0.17,0.208-0.433,0.311-0.792,0.311c-0.247,0-0.48-0.053-0.706-0.158
		c-0.228-0.103-0.461-0.28-0.699-0.517v-9.152c0.203-0.204,0.401-0.354,0.608-0.447c0.201-0.1,0.411-0.145,0.622-0.145
		c0.393,0,0.698,0.125,0.912,0.381c0.21,0.256,0.31,0.634,0.31,1.132V88.953z M81.149,77.335c-1.312,0-2.38,0.4-3.214,1.202
		c-0.829,0.803-1.248,1.845-1.248,3.114v6.599c0,1.415,0.384,2.527,1.138,3.332c0.754,0.807,1.79,1.21,3.106,1.21
		c1.463,0,2.562-0.378,3.293-1.136c0.74-0.764,1.105-1.9,1.105-3.406v-0.754h-3.019v0.671c0,0.862-0.103,1.42-0.293,1.672
		c-0.195,0.257-0.531,0.383-1.02,0.383c-0.469,0-0.802-0.147-0.995-0.446c-0.195-0.3-0.287-0.836-0.287-1.608v-2.771h5.613v-3.745
		c0-1.391-0.356-2.458-1.079-3.199C83.529,77.708,82.494,77.335,81.149,77.335z M82.312,83.111h-2.595v-1.484
		c0-0.612,0.097-1.058,0.303-1.316c0.205-0.272,0.539-0.402,1.007-0.402c0.445,0,0.778,0.13,0.977,0.402
		c0.201,0.259,0.309,0.704,0.309,1.316V83.111z M65.284,49.383c-0.405,0-0.729,0.107-0.984,0.325
		c-0.25,0.217-0.376,0.504-0.376,0.857v8.813c0,0.445,0.118,0.786,0.352,1.029c0.234,0.245,0.572,0.365,1.009,0.365
		c0.448,0,0.802-0.125,1.067-0.372c0.266-0.249,0.396-0.59,0.396-1.022v-8.813c0-0.354-0.135-0.641-0.403-0.857
		C66.073,49.49,65.721,49.383,65.284,49.383z M92.873,37.208H37.127c-4.054,0-7.367,3.316-7.367,7.368v15.661
		c0,4.051,3.313,7.365,7.367,7.365h55.746c4.054,0,7.367-3.314,7.367-7.365V44.576C100.24,40.524,96.927,37.208,92.873,37.208z
		 M55.921,54.067v9.1H52.2v-8.688l-4.43-13.244h3.748L53.934,50h0.235l2.3-8.766h3.785L55.921,54.067z M70.116,59.138
		c0,1.384-0.429,2.466-1.282,3.257c-0.861,0.787-2.039,1.181-3.542,1.181c-1.443,0-2.603-0.408-3.472-1.22
		c-0.864-0.812-1.301-1.907-1.301-3.282v-8.386c0-1.255,0.445-2.254,1.336-2.995c0.889-0.741,2.088-1.114,3.587-1.114
		c1.368,0,2.49,0.393,3.367,1.175c0.869,0.783,1.307,1.791,1.307,3.025V59.138z M82.23,63.167h-3.309V61.38
		c-0.604,0.657-1.237,1.162-1.899,1.506c-0.658,0.343-1.299,0.516-1.916,0.516c-0.771,0-1.342-0.242-1.73-0.724
		c-0.384-0.481-0.579-1.204-0.579-2.169V46.986h3.302v12.404c0,0.386,0.075,0.661,0.213,0.83c0.136,0.173,0.361,0.261,0.671,0.261
		c0.241,0,0.552-0.115,0.925-0.341c0.368-0.229,0.709-0.519,1.015-0.873V46.986h3.309V63.167z"/>
</g>
</svg>
